<svg id="amazon" xmlns="http://www.w3.org/2000/svg" width="97.525" height="29.421" viewBox="0 0 97.525 29.421">
  <path id="path8" d="M92.108,273.69c-5.658,4.191-13.872,6.412-20.955,6.412a38.007,38.007,0,0,1-25.607-9.765c-.545-.461-.042-1.132.587-.754a51.613,51.613,0,0,0,25.607,6.789,51.019,51.019,0,0,0,19.53-3.982c.964-.461,1.76.587.838,1.3" transform="translate(-31.589 -250.681)" fill="#f90"/>
  <path id="path10" d="M191.268,268.577c-.713-.922-4.778-.419-6.622-.21-.545.084-.629-.419-.126-.754,3.227-2.263,8.55-1.635,9.178-.838.629.754-.167,6.077-3.185,8.634-.461.377-.922.168-.713-.335.671-1.718,2.179-5.532,1.467-6.5" transform="translate(-128.402 -248.292)" fill="#f90"/>
  <path id="path12" d="M184.865,211.717V209.5a.528.528,0,0,1,.545-.545h9.933a.54.54,0,0,1,.587.545v1.886a2.659,2.659,0,0,1-.754,1.383L190.02,220.1a11.057,11.057,0,0,1,5.658,1.215,1.08,1.08,0,0,1,.545.88v2.347c0,.335-.377.713-.712.5a11.538,11.538,0,0,0-10.478,0,.533.533,0,0,1-.712-.5v-2.263a2.5,2.5,0,0,1,.377-1.509l5.951-8.55h-5.2a.489.489,0,0,1-.587-.5" transform="translate(-128.495 -208.49)" fill="#221f1f"/>
  <path id="path14" d="M58.5,224.873H55.481a.625.625,0,0,1-.545-.5V208.863a.565.565,0,0,1,.587-.545h2.808a.549.549,0,0,1,.545.5v2.012h.042a3.956,3.956,0,0,1,3.981-2.85c1.886,0,3.06.922,3.94,2.85a4.446,4.446,0,0,1,7.627-1.173c.964,1.3.754,3.185.754,4.862v9.765a.565.565,0,0,1-.587.545H71.616a.585.585,0,0,1-.545-.545v-8.214a21.8,21.8,0,0,0-.084-2.892,1.548,1.548,0,0,0-1.76-1.341,2.034,2.034,0,0,0-1.8,1.257,9.979,9.979,0,0,0-.293,2.976v8.214a.565.565,0,0,1-.587.545H63.528a.585.585,0,0,1-.545-.545v-8.214c0-1.719.293-4.275-1.844-4.275-2.179,0-2.1,2.473-2.1,4.275v8.214a.565.565,0,0,1-.545.587" transform="translate(-38.298 -207.815)" fill="#221f1f"/>
  <path id="path16" d="M235.252,207.983c4.484,0,6.915,3.856,6.915,8.717,0,4.736-2.682,8.466-6.915,8.466-4.4,0-6.789-3.856-6.789-8.634,0-4.82,2.431-8.55,6.789-8.55m0,3.143c-2.221,0-2.347,3.017-2.347,4.9s-.042,5.951,2.347,5.951c2.347,0,2.431-3.269,2.431-5.239a13.6,13.6,0,0,0-.461-4.107,1.876,1.876,0,0,0-1.97-1.509" transform="translate(-159.269 -207.815)" fill="#221f1f"/>
  <path id="path18" d="M284.609,224.873h-3.018a.586.586,0,0,1-.545-.545V208.821a.588.588,0,0,1,.587-.5h2.808a.638.638,0,0,1,.545.419v2.389h.042c.838-2.137,2.012-3.143,4.107-3.143a3.967,3.967,0,0,1,3.521,1.844c.8,1.257.8,3.311.8,4.82v9.765a.627.627,0,0,1-.587.5h-3.018a.582.582,0,0,1-.545-.5v-8.424c0-1.676.21-4.191-1.886-4.191a1.978,1.978,0,0,0-1.76,1.258,6.962,6.962,0,0,0-.461,2.934v8.34a.565.565,0,0,1-.587.545" transform="translate(-195.926 -207.815)" fill="#221f1f"/>
  <path id="Path_8801" data-name="Path 8801" d="M145.114,221.637a4.143,4.143,0,0,1-1.132-2.808v-4.694c0-2.012.126-3.814-1.341-5.2a6.725,6.725,0,0,0-4.526-1.509c-2.85,0-6.077,1.09-6.748,4.61a.519.519,0,0,0,.461.629l2.934.293c.293,0,.461-.293.545-.545a2.287,2.287,0,0,1,2.431-1.8,1.874,1.874,0,0,1,1.676.8,3.9,3.9,0,0,1,.377,2.179v.377a21.425,21.425,0,0,0-5.658,1.048,5.117,5.117,0,0,0-3.227,4.945c0,3.143,1.97,4.694,4.526,4.694a6.055,6.055,0,0,0,4.987-2.179,7.213,7.213,0,0,0,1.718,2.012.577.577,0,0,0,.713-.084h0c.587-.545,1.718-1.509,2.305-2.012C145.323,222.224,145.281,221.93,145.114,221.637Zm-5.951-1.341a2.482,2.482,0,0,1-2.1,1.383c-1.174,0-1.844-.88-1.844-2.179,0-2.556,2.305-3.059,4.484-3.059v.671A5.606,5.606,0,0,1,139.162,220.3Z" transform="translate(-91.259 -207.429)" fill="#221f1f"/>
  <path id="Path_8802" data-name="Path 8802" d="M14.25,221.637a4.143,4.143,0,0,1-1.132-2.808v-4.694c0-2.012.126-3.814-1.341-5.2a6.723,6.723,0,0,0-4.526-1.509c-2.85,0-6.077,1.09-6.748,4.61a.519.519,0,0,0,.461.629l2.934.293c.251,0,.461-.293.5-.545a2.287,2.287,0,0,1,2.431-1.8,1.874,1.874,0,0,1,1.676.8,3.9,3.9,0,0,1,.377,2.179v.377a21.425,21.425,0,0,0-5.658,1.048A5.215,5.215,0,0,0,0,220c0,3.143,1.97,4.694,4.526,4.694a6.054,6.054,0,0,0,4.987-2.179,7.214,7.214,0,0,0,1.718,2.012.577.577,0,0,0,.713-.084h0c.587-.545,1.718-1.509,2.305-2.012C14.5,222.224,14.459,221.93,14.25,221.637ZM8.34,220.3a2.482,2.482,0,0,1-2.1,1.383c-1.173,0-1.844-.88-1.844-2.179,0-2.556,2.305-3.059,4.484-3.059v.671h0A5.983,5.983,0,0,1,8.34,220.3Z" transform="translate(0 -207.429)" fill="#221f1f"/>
</svg>
