<svg xmlns="http://www.w3.org/2000/svg" width="38" height="38" viewBox="0 0 38 38">
  <g id="Correo" transform="translate(-666 -63.083)">
    <circle id="Ellipse_313" data-name="Ellipse 313" cx="19" cy="19" r="19" transform="translate(666 63.083)" fill="#e30613"/>
    <g id="envelope" transform="translate(673.054 72.992)">
      <g id="Group_23" data-name="Group 23" transform="translate(0 0)">
        <path id="Path_25" data-name="Path 25" d="M20.975,57.75H2.922A2.924,2.924,0,0,0,0,60.672V73.01a2.924,2.924,0,0,0,2.922,2.922H20.97a2.924,2.924,0,0,0,2.922-2.922V60.677A2.921,2.921,0,0,0,20.975,57.75Zm1.587,15.26A1.589,1.589,0,0,1,20.975,74.6H2.922A1.589,1.589,0,0,1,1.335,73.01V60.677A1.589,1.589,0,0,1,2.922,59.09H20.97a1.589,1.589,0,0,1,1.587,1.587V73.01Z" transform="translate(0 -57.75)" fill="#fff"/>
        <path id="Path_26" data-name="Path 26" d="M68.064,115.311l5.843-5.24a.669.669,0,1,0-.895-.994l-8.058,7.232-1.572-1.4s-.01-.01-.01-.015a.988.988,0,0,0-.109-.094l-6.4-5.724a.669.669,0,1,0-.89,1l5.912,5.285L56,120.868a.67.67,0,0,0-.03.944.683.683,0,0,0,.489.213.669.669,0,0,0,.455-.178l5.977-5.591,1.621,1.448a.666.666,0,0,0,.89,0l1.666-1.493,5.942,5.645a.669.669,0,0,0,.944-.025.67.67,0,0,0-.025-.944Z" transform="translate(-52.996 -106.374)" fill="#fff"/>
      </g>
    </g>
  </g>
</svg>
