<svg id="ebay" xmlns="http://www.w3.org/2000/svg" width="83.433" height="33.43" viewBox="0 0 83.433 33.43">
  <path id="e" d="M70.788,207.09C64.9,207.09,60,209.587,60,217.119c0,5.967,3.3,9.725,10.94,9.725,9,0,9.573-5.926,9.573-5.926H76.154s-.935,3.191-5.48,3.191c-3.7,0-6.364-2.5-6.364-6.006H80.969v-2.2c0-3.468-2.2-8.813-10.181-8.813Zm-.152,2.811c3.524,0,5.926,2.159,5.926,5.394H64.407C64.407,211.86,67.542,209.9,70.637,209.9Z" transform="translate(-60 -199.796)" fill="#e53238"/>
  <path id="b" d="M155.156,173.871v23.265c0,1.32-.094,3.175-.094,3.175h4.158s.149-1.332.149-2.549c0,0,2.054,3.213,7.64,3.213,5.882,0,9.877-4.083,9.877-9.934,0-5.443-3.67-9.82-9.867-9.82-5.8,0-7.607,3.134-7.607,3.134V173.871ZM165.945,184.1c3.994,0,6.534,2.964,6.534,6.942,0,4.266-2.933,7.056-6.505,7.056-4.263,0-6.562-3.328-6.562-7.018C159.411,187.641,161.474,184.1,165.945,184.1Z" transform="translate(-134.19 -173.871)" fill="#0064d2"/>
  <path id="a" d="M263.169,207.09c-8.853,0-9.421,4.847-9.421,5.622h4.406s.231-2.83,4.71-2.83c2.911,0,5.166,1.332,5.166,3.894v.912h-5.166c-6.859,0-10.485,2.007-10.485,6.078,0,4.007,3.35,6.187,7.878,6.187,6.17,0,8.158-3.409,8.158-3.409,0,1.356.1,2.692.1,2.692h3.917s-.152-1.656-.152-2.716v-9.16c0-6.006-4.844-7.27-9.117-7.27Zm4.862,10.333v1.215c0,1.585-.978,5.527-6.738,5.527-3.154,0-4.506-1.574-4.506-3.4,0-3.321,4.554-3.343,11.244-3.343Z" transform="translate(-210.142 -199.796)" fill="#f5af02"/>
  <path id="y" d="M332.235,210.554h4.957l7.114,14.253,7.1-14.253H355.9L342.966,235.93h-4.71l3.731-7.074Z" transform="translate(-272.463 -202.5)" fill="#86b817"/>
</svg>
