<svg xmlns="http://www.w3.org/2000/svg" width="32.04" height="32.04" viewBox="0 0 32.04 32.04">
  <g id="Instagram-icon" transform="translate(0 0)">
    <g id="Ellipse_65" data-name="Ellipse 65" transform="translate(0 0)" fill="none" stroke="#f9f9f9" stroke-width="1">
      <ellipse cx="16.02" cy="16.02" rx="16.02" ry="16.02" stroke="none"/>
      <ellipse cx="16.02" cy="16.02" rx="15.52" ry="15.52" fill="none"/>
    </g>
    <g id="logotipo-de-instagram" transform="translate(7.698 7.698)">
      <path id="Path_8058" data-name="Path 8058" d="M12.05,0H4.593A4.6,4.6,0,0,0,0,4.593V12.05a4.6,4.6,0,0,0,4.593,4.593H12.05a4.6,4.6,0,0,0,4.593-4.593V4.593A4.6,4.6,0,0,0,12.05,0Zm3.116,12.05a3.12,3.12,0,0,1-3.116,3.116H4.593A3.12,3.12,0,0,1,1.477,12.05V4.593A3.12,3.12,0,0,1,4.593,1.477H12.05a3.12,3.12,0,0,1,3.116,3.116V12.05Z" fill="#f9f9f9"/>
      <path id="Path_8059" data-name="Path 8059" d="M45.257,40.97a4.288,4.288,0,1,0,4.289,4.289A4.293,4.293,0,0,0,45.257,40.97Zm0,7.1a2.812,2.812,0,1,1,2.812-2.812A2.815,2.815,0,0,1,45.257,48.07Z" transform="translate(-36.935 -36.937)" fill="#f9f9f9"/>
      <path id="Path_8060" data-name="Path 8060" d="M120,28.251a1.082,1.082,0,1,0,.766.317A1.087,1.087,0,0,0,120,28.251Z" transform="translate(-107.214 -25.47)" fill="#f9f9f9"/>
    </g>
  </g>
</svg>
