<svg xmlns="http://www.w3.org/2000/svg" width="66.895" height="68.552" viewBox="0 0 66.895 68.552">
  <g id="mrw" transform="translate(-1125.972 -823.263)">
    <path id="Path_15897" data-name="Path 15897" d="M357.118,159.887c-1.914-.083-3.738-.1-5.544-.269-1.141-.111-2.285-.309-3.426-.535-1.49-.269-2.965-.618-4.431-.992a28.948,28.948,0,0,1-2.863-.829c-.646-.25-1.329-.4-1.942-.689-.7-.328-1.441-.538-2.118-.872-1.011-.5-2.025-1-3-1.546a24.485,24.485,0,0,1-2.473-1.586,27.418,27.418,0,0,1-5.72-5.565,31.128,31.128,0,0,1-2.968-4.734,43.093,43.093,0,0,1-2.668-6.555c-.7-2.217-1.274-4.465-1.75-6.737-.51-2.418-.928-4.851-1.271-7.3-.254-1.775-.464-3.556-.665-5.343.145-.019.182.087.238.167a26.277,26.277,0,0,0,1.806,2.164c.618.708,1.345,1.333,2.016,2a9.043,9.043,0,0,0,.974.813,35.388,35.388,0,0,0,3.092,2.136q1.49.863,3.049,1.626c.618.309,1.237.535,1.874.8a40.13,40.13,0,0,0,5.1,1.676c.835.229,1.679.411,2.52.6.1.022.241.111.291-.015s-.114-.152-.2-.192c-.776-.334-1.546-.711-2.306-1.07-1.073-.5-2.118-1.07-3.157-1.645-.866-.479-1.734-.977-2.56-1.518-1.175-.773-2.359-1.546-3.451-2.424-.928-.751-1.83-1.546-2.705-2.356a29.1,29.1,0,0,1-2.866-3.123,30.636,30.636,0,0,1-3.593-5.652,29.29,29.29,0,0,1-1.83-4.765,30.721,30.721,0,0,1-1.064-5.086c-.031-.275-.223-.541-.08-.841.489.822.986,1.623,1.527,2.4a35.68,35.68,0,0,0,2.857,3.481,12.118,12.118,0,0,0,.875.863c.742.7,1.481,1.4,2.282,2.047.733.591,1.478,1.166,2.245,1.719s1.466,1.023,2.217,1.515c.912.594,1.837,1.159,2.783,1.694s1.886,1.039,2.854,1.53c1.107.569,2.242,1.091,3.37,1.623.618.288,1.237.516,1.855.788,1.345.618,2.733,1.116,4.118,1.636s2.872,1.045,4.329,1.515a6.649,6.649,0,0,1,1.011.436,1.775,1.775,0,0,1,.711,2.164,38.74,38.74,0,0,0-1.317,4.5,43.187,43.187,0,0,0-.965,6.06,38.22,38.22,0,0,0-.065,5.565,28.466,28.466,0,0,0,1.1,6.3,24.574,24.574,0,0,0,2.2,5.207,21.736,21.736,0,0,0,2.245,3.219,24.5,24.5,0,0,0,2.378,2.43,25.747,25.747,0,0,0,3.163,2.365,15.627,15.627,0,0,0,1.447.832A4.288,4.288,0,0,1,357.118,159.887Z" transform="translate(812.67 723.633)" fill="#bfbfbf" fill-rule="evenodd"/>
    <path id="Path_15898" data-name="Path 15898" d="M334.6,298.226a12.913,12.913,0,0,0-1.586,0,17.387,17.387,0,0,0-2.644.523,13.315,13.315,0,0,0-1.642.424c-.989.334-2.019.532-3.005.835a13.493,13.493,0,0,1-5.469.526,6.3,6.3,0,0,1-3.008-1.153,6.9,6.9,0,0,1-2.223-2.82c-.557-1.206-.983-2.455-1.419-3.71-.139-.405-.278-.8-.433-1.2-.056-.152-.046-.2.155-.182a38.155,38.155,0,0,1,4.6.569c1.147.25,2.325.439,3.441.8.785.254,1.6.405,2.368.7,1.11.43,2.257.764,3.364,1.2,1.023.414,2.044.847,3.07,1.268,1.166.482,2.294,1.039,3.4,1.614A4.856,4.856,0,0,1,334.6,298.226Z" transform="translate(812.827 591.112)" fill="#bfbfbf" fill-rule="evenodd"/>
    <path id="Path_15899" data-name="Path 15899" d="M360.25,290.43a11,11,0,0,1,1.345.408c.643.152,1.292.281,1.942.424a24.845,24.845,0,0,0,3.16.523c1.023.093,2.05.182,3.073.309,2.436.288,4.888.377,7.334.489,2.8.127,5.615.173,8.419.269,1.453.049,2.906.053,4.356.136,3.973.232,7.955.244,11.922.6a24.227,24.227,0,0,1,5.006.906,2.156,2.156,0,0,1,1.4.928c.068.136.213.142.334.167a8.9,8.9,0,0,1,2.872,1.153,2.266,2.266,0,0,1,.782,3.253c-.529-.928-1.518-1.026-2.409-1.363a5.391,5.391,0,0,0-2.582.08c-2.9.232-5.794.393-8.694.6a82.752,82.752,0,0,1-8.444.124c-2.606-.087-5.213-.288-7.8-.618a10.556,10.556,0,0,1-1.4-.17c-1.051-.278-2.133-.352-3.191-.584-1.348-.291-2.693-.618-4.019-1a26.436,26.436,0,0,1-2.628-.826c-.618-.247-1.237-.427-1.837-.693-1.181-.529-2.359-1.054-3.515-1.639-.9-.454-1.769-.965-2.619-1.493s-1.7-1.144-2.545-1.722A2.371,2.371,0,0,1,360.25,290.43Z" transform="translate(780.286 591.825)" fill="#bfbfbf" fill-rule="evenodd"/>
    <path id="Path_15900" data-name="Path 15900" d="M435.1,240.328c-.992-.1-1.991-.117-2.987-.192a1.425,1.425,0,0,1-.532-.213,25.412,25.412,0,0,1-3.757-2.458,22.392,22.392,0,0,1-2.446-2.272,24.631,24.631,0,0,1-2.681-3.472c-.374-.591-.733-1.181-1.06-1.79A27.74,27.74,0,0,1,419.7,225.4a28.909,28.909,0,0,1-1.475-9.529c0-.158.022-.272.244-.164.955.461,2.022.643,3,1.054.572.238,1.212.309,1.79.55,1.045.414,2.164.578,3.2,1.026a2.3,2.3,0,0,0,.346.1,1.778,1.778,0,0,1,1.011,2.783,14.325,14.325,0,0,0-2.523,4.52,9.227,9.227,0,0,0-.26,5.064,9.536,9.536,0,0,0,2.192,4.084,15.61,15.61,0,0,0,2.6,2.356,28.2,28.2,0,0,0,2.44,1.546c.832.482,1.741.86,2.609,1.292.083.04.158.1.238.148a.566.566,0,0,1-.022.1Z" transform="translate(740.239 643.476)" fill="#717679" fill-rule="evenodd"/>
  </g>
</svg>
