<svg xmlns="http://www.w3.org/2000/svg" width="38" height="38" viewBox="0 0 38 38">
  <g id="telf" transform="translate(-666 -63.083)">
    <circle id="Ellipse_313" data-name="Ellipse 313" cx="19" cy="19" r="19" transform="translate(666 63.083)" fill="#e30613"/>
    <g id="llamada-telefonica" transform="translate(672.25 70.533)">
      <g id="Group_3407" data-name="Group 3407" transform="translate(0 0)">
        <path id="Path_8939" data-name="Path 8939" d="M19.525,41.049a2.389,2.389,0,0,0-1.733-.795,2.471,2.471,0,0,0-1.753.79l-1.62,1.615c-.133-.072-.267-.138-.395-.205-.185-.092-.359-.179-.508-.272A17.609,17.609,0,0,1,9.3,38.337a10.388,10.388,0,0,1-1.384-2.184c.42-.385.81-.784,1.189-1.169.144-.144.287-.292.431-.436a2.352,2.352,0,0,0,0-3.548l-1.4-1.4c-.159-.159-.323-.323-.477-.487-.308-.318-.631-.646-.964-.954a2.427,2.427,0,0,0-1.718-.754,2.511,2.511,0,0,0-1.743.754l-.01.01L1.478,29.928A3.751,3.751,0,0,0,.366,32.313a8.988,8.988,0,0,0,.656,3.8,22.075,22.075,0,0,0,3.922,6.542,24.127,24.127,0,0,0,8.034,6.291,12.518,12.518,0,0,0,4.512,1.333c.108.005.22.01.323.01a3.863,3.863,0,0,0,2.958-1.272c.005-.01.015-.015.021-.026a11.656,11.656,0,0,1,.9-.928c.22-.21.446-.431.667-.661a2.558,2.558,0,0,0,.774-1.774,2.464,2.464,0,0,0-.79-1.759Zm1.835,5.4c-.005,0-.005.005,0,0-.2.215-.405.41-.625.625a13.482,13.482,0,0,0-.99,1.025,2.472,2.472,0,0,1-1.928.815c-.077,0-.159,0-.236-.005a11.12,11.12,0,0,1-4-1.2,22.775,22.775,0,0,1-7.567-5.927,20.815,20.815,0,0,1-3.691-6.147,7.321,7.321,0,0,1-.574-3.21A2.354,2.354,0,0,1,2.457,30.9l1.748-1.748a1.165,1.165,0,0,1,.779-.364,1.1,1.1,0,0,1,.749.359l.015.015c.313.292.61.595.923.918.159.164.323.328.487.5l1.4,1.4a.978.978,0,0,1,0,1.589c-.149.149-.292.3-.441.441-.431.441-.841.851-1.287,1.251-.01.01-.021.015-.026.026a1.046,1.046,0,0,0-.267,1.164l.015.046A11.237,11.237,0,0,0,8.21,39.2l.005.005a18.818,18.818,0,0,0,4.553,4.143,7,7,0,0,0,.631.344c.185.092.359.179.508.272.021.01.041.026.062.036a1.111,1.111,0,0,0,.508.128,1.1,1.1,0,0,0,.779-.354l1.753-1.753a1.16,1.16,0,0,1,.774-.385,1.044,1.044,0,0,1,.738.374l.01.01,2.825,2.825A1.014,1.014,0,0,1,21.361,46.448Z" transform="translate(-0.344 -26.001)" fill="#fff"/>
        <path id="Path_8940" data-name="Path 8940" d="M245.513,87.3a6.6,6.6,0,0,1,5.373,5.373.688.688,0,0,0,.682.574.916.916,0,0,0,.118-.01.693.693,0,0,0,.569-.8,7.979,7.979,0,0,0-6.5-6.5.7.7,0,0,0-.8.564A.685.685,0,0,0,245.513,87.3Z" transform="translate(-232.403 -81.52)" fill="#fff"/>
        <path id="Path_8941" data-name="Path 8941" d="M260.285,10.716A13.138,13.138,0,0,0,249.579.011a.691.691,0,1,0-.226,1.364,11.735,11.735,0,0,1,9.567,9.567.688.688,0,0,0,.682.574.915.915,0,0,0,.118-.01A.679.679,0,0,0,260.285,10.716Z" transform="translate(-236.038 0)" fill="#fff"/>
      </g>
    </g>
  </g>
</svg>
