<svg id="TwitterIcon" xmlns="http://www.w3.org/2000/svg" width="31.84" height="31.84" viewBox="0 0 31.84 31.84">
  <g id="Group_4181" data-name="Group 4181" transform="translate(0 0)">
    <g id="Group_4180" data-name="Group 4180">
      <path id="Path_8943" data-name="Path 8943" d="M27.177,4.663A15.92,15.92,0,1,0,4.663,27.177,15.92,15.92,0,1,0,27.177,4.663ZM15.92,30.834A14.914,14.914,0,1,1,30.834,15.92,14.931,14.931,0,0,1,15.92,30.834Z" transform="translate(0 0)" fill="#f9f9f9"/>
    </g>
  </g>
  <g id="Group_4183" data-name="Group 4183" transform="translate(6.541 8.044)">
    <g id="Group_4182" data-name="Group 4182">
      <path id="Path_8944" data-name="Path 8944" d="M125.771,131.4a.516.516,0,0,0-.552-.069,7.8,7.8,0,0,1-.8.318,4.58,4.58,0,0,0,.634-1.208.522.522,0,0,0-.1-.524.5.5,0,0,0-.62-.1,7.237,7.237,0,0,1-2.359.847,5.033,5.033,0,0,0-8.413,3.285,17.527,17.527,0,0,1-1.861-.471,11.287,11.287,0,0,1-4.793-3.191.521.521,0,0,0-.292-.172.5.5,0,0,0-.544.27,4.642,4.642,0,0,0,.392,4.783.5.5,0,0,0-.486.18.518.518,0,0,0-.11.309c0,.051,0,.1,0,.154a4.342,4.342,0,0,0,1.625,3.395.505.505,0,0,0-.168.192.514.514,0,0,0-.027.384,4.456,4.456,0,0,0,2.879,2.909,7.864,7.864,0,0,1-4.084,1.146c-.128,0-.259,0-.39-.01a.5.5,0,0,0-.521.419.517.517,0,0,0,.254.524,12.069,12.069,0,0,0,13.183-.618.507.507,0,0,0,.06-.769h0a.509.509,0,0,0-.66-.049,11.038,11.038,0,0,1-10.4,1.375,8.865,8.865,0,0,0,4.13-1.91.517.517,0,0,0,.183-.492.5.5,0,0,0-.479-.406,3.452,3.452,0,0,1-2.9-1.745,4.81,4.81,0,0,0,.836-.114.52.52,0,0,0,.408-.43.5.5,0,0,0-.378-.553,3.335,3.335,0,0,1-2.5-2.69,4.589,4.589,0,0,0,1.184.118.5.5,0,0,0,.485-.446.518.518,0,0,0-.253-.5,3.63,3.63,0,0,1-1.625-4.008,12.287,12.287,0,0,0,4.669,2.893,13.512,13.512,0,0,0,2.4.547l.248.01a.5.5,0,0,0,.524-.522c0-.029,0-.059,0-.088a4.027,4.027,0,0,1,6.9-2.825.5.5,0,0,0,.422.146,8.28,8.28,0,0,0,1.495-.35,3.6,3.6,0,0,1-.9.715.5.5,0,0,0-.219.648l.007.016a.5.5,0,0,0,.506.294,8.884,8.884,0,0,0,1.228-.2,8.119,8.119,0,0,1-1.172,1,.5.5,0,0,0-.212.427v.032c0,.034,0,.069,0,.1v.045a11.007,11.007,0,0,1-2.84,7.338.507.507,0,0,0,.759.674,11.974,11.974,0,0,0,3.087-7.954,9.061,9.061,0,0,0,2.253-2.431A.5.5,0,0,0,125.771,131.4Z" transform="translate(-105.176 -129.347)" fill="#f9f9f9"/>
    </g>
  </g>
</svg>
