<svg xmlns="http://www.w3.org/2000/svg" width="38" height="38" viewBox="0 0 38 38">
  <g id="Ubicacion" transform="translate(-666 -63.083)">
    <circle id="Ellipse_313" data-name="Ellipse 313" cx="19" cy="19" r="19" transform="translate(666 63.083)" fill="#e30613"/>
    <g id="placeholder" transform="translate(674.976 69.585)">
      <g id="Group_31" data-name="Group 31" transform="translate(0 0)">
        <path id="Path_59" data-name="Path 59" d="M57.219,0A10.032,10.032,0,0,0,47.2,10.019a9.861,9.861,0,0,0,.178,1.881c.005.037.026.147.068.335a9.867,9.867,0,0,0,.671,1.975c1.079,2.541,3.453,6.445,8.661,10.626a.71.71,0,0,0,.891,0c5.2-4.181,7.582-8.085,8.661-10.626A9.757,9.757,0,0,0,67,12.235c.042-.189.063-.3.068-.335a10.3,10.3,0,0,0,.178-1.881A10.048,10.048,0,0,0,57.219,0Zm8.447,11.653c0,.01-.005.021-.005.031-.005.026-.021.1-.047.225v.01a8.318,8.318,0,0,1-.582,1.708c-.005.005-.005.016-.01.021-.98,2.321-3.128,5.863-7.8,9.725-4.674-3.862-6.822-7.4-7.8-9.725-.005-.005-.005-.016-.01-.021a8.873,8.873,0,0,1-.582-1.708v-.01c-.031-.121-.042-.2-.047-.225,0-.01-.005-.021-.005-.037a8.6,8.6,0,1,1,16.893.005Z" transform="translate(-47.2 0)" fill="#fff"/>
        <path id="Path_60" data-name="Path 60" d="M123.361,71.9a6.361,6.361,0,1,0,6.361,6.361A6.371,6.371,0,0,0,123.361,71.9Zm0,11.308a4.946,4.946,0,1,1,4.946-4.946A4.952,4.952,0,0,1,123.361,83.208Z" transform="translate(-113.343 -68.133)" fill="#fff"/>
      </g>
    </g>
  </g>
</svg>
